<?xml version="1.0" encoding="UTF-8" standalone="no"?>
<!--
  Genesi OS - Custom tasks.svg override for Ant-Dark Plasma theme.
  v2 - rewritten after live ISO test:
    - Centered glow gradient (v1) was too "blurry halo"; switched to a
      thin Genesi-green outline that traces the icon's rounded rect,
      matching the design mock more literally.
    - bottom element now spans the FULL bottom strip with the gradient
      drawn INSIDE the strip (transparent at edges, bright in middle).
      v1 had a 20px-wide rect inside a 32px strip, which Plasma tiled
      horizontally to fill the empty space - hence the underline
      visibly repeating ~3 times across each icon.
  States: focus, hover, minimized, attention, normal.
  Each state is a 9-slice FrameSvg block laid out as horizontal bands.
-->
<svg xmlns="http://www.w3.org/2000/svg"
     xmlns:xlink="http://www.w3.org/1999/xlink"
     viewBox="0 0 250 64" width="250" height="64">

  <defs>
    <!-- Horizontal fade so the underline reads as a centered glowing
         bar even when stretched to fill the bottom strip.
         (Plasma stretches the `bottom` element across the icon width;
         keeping the fade inside the gradient means we never tile.) -->
    <linearGradient id="genesi-underline" x1="0" y1="0" x2="1" y2="0">
      <stop offset="0"    stop-color="#4ade80" stop-opacity="0"/>
      <stop offset="0.35" stop-color="#4ade80" stop-opacity="1"/>
      <stop offset="0.65" stop-color="#4ade80" stop-opacity="1"/>
      <stop offset="1"    stop-color="#4ade80" stop-opacity="0"/>
    </linearGradient>

    <linearGradient id="genesi-underline-attn" x1="0" y1="0" x2="1" y2="0">
      <stop offset="0"    stop-color="#fbbf24" stop-opacity="0"/>
      <stop offset="0.35" stop-color="#fbbf24" stop-opacity="1"/>
      <stop offset="0.65" stop-color="#fbbf24" stop-opacity="1"/>
      <stop offset="1"    stop-color="#fbbf24" stop-opacity="0"/>
    </linearGradient>
  </defs>

  <!-- ========== focus (active/focused task) ========== -->
  <!-- Band: x = 0..40
       Visual: thin bright green outline + faint inner tint + centered
       underline bar at the bottom edge. -->
  <rect id="focus-topleft"     x="0"  y="0"  width="4"  height="4"  fill="none"/>
  <rect id="focus-top"         x="4"  y="0"  width="32" height="2"  fill="none"/>
  <rect id="focus-topright"    x="36" y="0"  width="4"  height="4"  fill="none"/>
  <rect id="focus-left"        x="0"  y="4"  width="2"  height="52" fill="none"/>
  <rect id="focus-center"      x="3"  y="3"  width="34" height="54" rx="10" ry="10"
        fill="rgba(74,222,128,0.06)"
        stroke="#4ade80" stroke-width="1.2" stroke-opacity="0.85"/>
  <rect id="focus-right"       x="38" y="4"  width="2"  height="52" fill="none"/>
  <rect id="focus-bottomleft"  x="0"  y="56" width="4"  height="4"  fill="none"/>
  <rect id="focus-bottom"      x="4"  y="60" width="32" height="2"  rx="1"
        fill="url(#genesi-underline)"/>
  <rect id="focus-bottomright" x="36" y="56" width="4"  height="4"  fill="none"/>

  <!-- ========== hover (mouse over task) ========== -->
  <!-- Band: x = 50..90
       Visual: dimmer outline, no underline (the underline is the
       "this is open" signal — hover is just a "you're pointing at me"
       signal). -->
  <rect id="hover-topleft"     x="50" y="0"  width="4"  height="4"  fill="none"/>
  <rect id="hover-top"         x="54" y="0"  width="32" height="2"  fill="none"/>
  <rect id="hover-topright"    x="86" y="0"  width="4"  height="4"  fill="none"/>
  <rect id="hover-left"        x="50" y="4"  width="2"  height="52" fill="none"/>
  <rect id="hover-center"      x="53" y="3"  width="34" height="54" rx="10" ry="10"
        fill="rgba(74,222,128,0.04)"
        stroke="rgba(74,222,128,0.4)" stroke-width="1"/>
  <rect id="hover-right"       x="88" y="4"  width="2"  height="52" fill="none"/>
  <rect id="hover-bottomleft"  x="50" y="56" width="4"  height="4"  fill="none"/>
  <rect id="hover-bottom"      x="54" y="60" width="32" height="2"  fill="none"/>
  <rect id="hover-bottomright" x="86" y="56" width="4"  height="4"  fill="none"/>

  <!-- ========== minimized (open but not focused) ========== -->
  <!-- Band: x = 100..140
       Visual: dim outline, no underline. "Open but not selected" reads
       as a faint trace of the focused look. -->
  <rect id="minimized-topleft"     x="100" y="0"  width="4"  height="4"  fill="none"/>
  <rect id="minimized-top"         x="104" y="0"  width="32" height="2"  fill="none"/>
  <rect id="minimized-topright"    x="136" y="0"  width="4"  height="4"  fill="none"/>
  <rect id="minimized-left"        x="100" y="4"  width="2"  height="52" fill="none"/>
  <rect id="minimized-center"      x="103" y="3"  width="34" height="54" rx="10" ry="10"
        fill="none"
        stroke="rgba(74,222,128,0.55)" stroke-width="1"/>
  <rect id="minimized-right"       x="138" y="4"  width="2"  height="52" fill="none"/>
  <rect id="minimized-bottomleft"  x="100" y="56" width="4"  height="4"  fill="none"/>
  <rect id="minimized-bottom"      x="104" y="60" width="32" height="2"  fill="none"/>
  <rect id="minimized-bottomright" x="136" y="56" width="4"  height="4"  fill="none"/>

  <!-- ========== attention (window needs user attention) ========== -->
  <!-- Band: x = 150..190
       Visual: amber outline + amber underline so it stands out against
       the steady-state green. -->
  <rect id="attention-topleft"     x="150" y="0"  width="4"  height="4"  fill="none"/>
  <rect id="attention-top"         x="154" y="0"  width="32" height="2"  fill="none"/>
  <rect id="attention-topright"    x="186" y="0"  width="4"  height="4"  fill="none"/>
  <rect id="attention-left"        x="150" y="4"  width="2"  height="52" fill="none"/>
  <rect id="attention-center"      x="153" y="3"  width="34" height="54" rx="10" ry="10"
        fill="rgba(251,191,36,0.06)"
        stroke="#fbbf24" stroke-width="1.2"/>
  <rect id="attention-right"       x="188" y="4"  width="2"  height="52" fill="none"/>
  <rect id="attention-bottomleft"  x="150" y="56" width="4"  height="4"  fill="none"/>
  <rect id="attention-bottom"      x="154" y="60" width="32" height="2"  rx="1"
        fill="url(#genesi-underline-attn)"/>
  <rect id="attention-bottomright" x="186" y="56" width="4"  height="4"  fill="none"/>

  <!-- ========== normal (launcher, app not running) ========== -->
  <!-- Band: x = 200..240. Fully transparent. -->
  <rect id="normal-topleft"     x="200" y="0"  width="4"  height="4"  fill="none"/>
  <rect id="normal-top"         x="204" y="0"  width="32" height="2"  fill="none"/>
  <rect id="normal-topright"    x="236" y="0"  width="4"  height="4"  fill="none"/>
  <rect id="normal-left"        x="200" y="4"  width="2"  height="52" fill="none"/>
  <rect id="normal-center"      x="202" y="2"  width="36" height="56" fill="none"/>
  <rect id="normal-right"       x="238" y="4"  width="2"  height="52" fill="none"/>
  <rect id="normal-bottomleft"  x="200" y="56" width="4"  height="4"  fill="none"/>
  <rect id="normal-bottom"      x="204" y="60" width="32" height="2"  fill="none"/>
  <rect id="normal-bottomright" x="236" y="56" width="4"  height="4"  fill="none"/>
</svg>
