<?xml version="1.0" encoding="UTF-8" standalone="no"?>
<!--
  Genesi OS - Custom tasks.svg override for Darkly Plasma theme.
  Replaces Darkly's accent-colored task background with the styles.css look:
    .tb-app.active .iconbox { box-shadow: 0 0 0 2px rgba(74,222,128,0.4); }
    .tb-app.open::after    { width:16px; height:2px; background:#4ade80; }
  States required by Plasma FrameSvg: normal, focus, hover, minimized, attention.
  Each state has 9 elements (top, bottom, left, right, center + 4 corners) so
  KWin/Plasma can stretch it as a 9-grid frame. Most parts are intentionally
  zero-size or transparent — only the bottom bar (focus/minimized) and the
  optional outline (focus/attention) draw anything visible.
-->
<svg xmlns="http://www.w3.org/2000/svg"
     xmlns:xlink="http://www.w3.org/1999/xlink"
     viewBox="0 0 200 64" width="200" height="64">

  <defs>
    <!-- styles.css colors -->
    <linearGradient id="green-bar" x1="0" y1="0" x2="1" y2="0">
      <stop offset="0" stop-color="#4ade80" stop-opacity="0"/>
      <stop offset="0.5" stop-color="#4ade80" stop-opacity="1"/>
      <stop offset="1" stop-color="#4ade80" stop-opacity="0"/>
    </linearGradient>
  </defs>

  <!-- ========== focus (active/focused task) ========== -->
  <!-- Position: x=0..40 -->
  <rect id="focus-topleft"     x="0"  y="0"  width="4"  height="4"  fill="none"/>
  <rect id="focus-top"         x="4"  y="0"  width="32" height="2"  fill="none"/>
  <rect id="focus-topright"    x="36" y="0"  width="4"  height="4"  fill="none"/>
  <rect id="focus-left"        x="0"  y="4"  width="2"  height="52" fill="none"/>
  <rect id="focus-center"      x="2"  y="2"  width="36" height="56" rx="10" ry="10"
        fill="rgba(94,234,212,0.04)" stroke="rgba(74,222,128,0.35)" stroke-width="1"/>
  <rect id="focus-right"       x="38" y="4"  width="2"  height="52" fill="none"/>
  <rect id="focus-bottomleft"  x="0"  y="56" width="4"  height="4"  fill="none"/>
  <rect id="focus-bottom"      x="12" y="60" width="16" height="2"  rx="1" fill="url(#green-bar)"/>
  <rect id="focus-bottomright" x="36" y="56" width="4"  height="4"  fill="none"/>

  <!-- ========== hover (mouse over task) ========== -->
  <!-- Position: x=50..90 -->
  <rect id="hover-topleft"     x="50" y="0"  width="4"  height="4"  fill="none"/>
  <rect id="hover-top"         x="54" y="0"  width="32" height="2"  fill="none"/>
  <rect id="hover-topright"    x="86" y="0"  width="4"  height="4"  fill="none"/>
  <rect id="hover-left"        x="50" y="4"  width="2"  height="52" fill="none"/>
  <rect id="hover-center"      x="52" y="2"  width="36" height="56" rx="10" ry="10"
        fill="rgba(94,234,212,0.08)"/>
  <rect id="hover-right"       x="88" y="4"  width="2"  height="52" fill="none"/>
  <rect id="hover-bottomleft"  x="50" y="56" width="4"  height="4"  fill="none"/>
  <rect id="hover-bottom"      x="54" y="60" width="32" height="2"  fill="none"/>
  <rect id="hover-bottomright" x="86" y="56" width="4"  height="4"  fill="none"/>

  <!-- ========== minimized (open but not focused) ========== -->
  <!-- Position: x=100..140 -->
  <rect id="minimized-topleft"     x="100" y="0"  width="4"  height="4"  fill="none"/>
  <rect id="minimized-top"         x="104" y="0"  width="32" height="2"  fill="none"/>
  <rect id="minimized-topright"    x="136" y="0"  width="4"  height="4"  fill="none"/>
  <rect id="minimized-left"        x="100" y="4"  width="2"  height="52" fill="none"/>
  <rect id="minimized-center"      x="102" y="2"  width="36" height="56" fill="none"/>
  <rect id="minimized-right"       x="138" y="4"  width="2"  height="52" fill="none"/>
  <rect id="minimized-bottomleft"  x="100" y="56" width="4"  height="4"  fill="none"/>
  <rect id="minimized-bottom"      x="112" y="60" width="16" height="2"  rx="1" fill="rgba(74,222,128,0.45)"/>
  <rect id="minimized-bottomright" x="136" y="56" width="4"  height="4"  fill="none"/>

  <!-- ========== attention (needs attention / urgency hint) ========== -->
  <!-- Position: x=150..190 -->
  <rect id="attention-topleft"     x="150" y="0"  width="4"  height="4"  fill="none"/>
  <rect id="attention-top"         x="154" y="0"  width="32" height="2"  fill="none"/>
  <rect id="attention-topright"    x="186" y="0"  width="4"  height="4"  fill="none"/>
  <rect id="attention-left"        x="150" y="4"  width="2"  height="52" fill="none"/>
  <rect id="attention-center"      x="152" y="2"  width="36" height="56" rx="10" ry="10"
        fill="rgba(229,62,62,0.10)" stroke="rgba(229,62,62,0.7)" stroke-width="1.5"/>
  <rect id="attention-right"       x="188" y="4"  width="2"  height="52" fill="none"/>
  <rect id="attention-bottomleft"  x="150" y="56" width="4"  height="4"  fill="none"/>
  <rect id="attention-bottom"      x="162" y="60" width="16" height="2"  rx="1" fill="#e53e3e"/>
  <rect id="attention-bottomright" x="186" y="56" width="4"  height="4"  fill="none"/>

  <!-- defs for Plasma color-scheme integration (no-op) -->
  <style id="current-color-scheme" type="text/css"></style>
</svg>
